<?xml version="1.0" encoding="UTF-8"?>
<!-- Created with Inkscape (http://www.inkscape.org/) -->
<svg version="1.1" viewBox="0 0 88.156 88.156" xmlns="http://www.w3.org/2000/svg">
 <g transform="translate(-107.76 -138.88)">
  <g aria-label="Loop Supreme">
   <circle cx="151.83" cy="182.96" r="42.707" fill="none" stroke="#000" stroke-width="2.741"/>
   <g transform="rotate(-14.839)" stroke-width="1.5208" aria-label="Loop Supreme">
    <path d="m90.673 198.69q0 2.2559-0.88796 3.2638t-4.2478 1.008q-1.5359 0-2.3279-0.16799-0.76796-0.16799-0.93595-0.35998-0.16799-0.21599-0.16799-0.59997l0.048-0.35998q0.55197-2.9758 0.55197-8.0876l-0.096-4.0798q-0.048-0.86396-0.55197-1.5599-0.31198-0.31198-0.31198-0.64796 0-0.79196 1.4399-1.5599 1.4639-0.76796 2.2799-0.76796t0.81596 0.67197q-0.31198 2.3999-0.38398 4.3918-0.048 1.9679-0.048 4.5118 0 2.5199 0.024 3.0478 0.024 0.52798 0.024 0.57597 0.024 0.048 0.072 0.16799 0.072 0.12 0.19199 0.21599 0.28799 0.21599 0.88796 0.21599 1.3199 0 2.1119-0.91195 0.38398-0.38398 0.76796-0.38398 0.74396 0 0.74396 1.4159z"/>
    <path d="m95.593 190.6q2.0879 0 3.1678 1.8239 1.1039 1.8239 1.1039 4.4638 0 3.4798-1.9919 5.2797-1.1039 0.98395-2.4479 0.98395t-2.2319-0.55197q-0.86396-0.55197-1.3199-1.4639-0.93595-1.7759-0.93595-3.7918 0-2.3519 1.0799-4.4158 0.52797-1.032 1.4639-1.6799t2.1119-0.64797zm1.3919 5.1118q0-0.71997-0.28799-1.2959-0.28798-0.57597-0.95995-0.57597-0.64797 0-1.2719 0.93595-0.59997 0.91196-0.59997 2.2319 0 1.8479 1.2239 1.8479 0.67197 0 1.2719-0.83996 0.62397-0.83996 0.62397-2.3039z"/>
    <path d="m105.02 190.6q2.0879 0 3.1678 1.8239 1.1039 1.8239 1.1039 4.4638 0 3.4798-1.9919 5.2797-1.1039 0.98395-2.4479 0.98395-1.3439 0-2.2319-0.55197-0.86396-0.55197-1.3199-1.4639-0.93595-1.7759-0.93595-3.7918 0-2.3519 1.08-4.4158 0.52797-1.032 1.4639-1.6799 0.93596-0.64797 2.1119-0.64797zm1.3919 5.1118q0-0.71997-0.28799-1.2959-0.28798-0.57597-0.95995-0.57597-0.64797 0-1.2719 0.93595-0.59997 0.91196-0.59997 2.2319 0 1.8479 1.2239 1.8479 0.67197 0 1.2719-0.83996 0.62397-0.83996 0.62397-2.3039z"/>
    <path d="m112.49 190.55q0.79197 0 0.79197 1.4159 0.072 0.144 0.14399 0.144 0.096 0 0.19199-0.12 0.096-0.14399 0.23999-0.31198 0.16799-0.19199 0.67196-0.47998 0.52798-0.28798 1.2959-0.28798t1.4879 0.52797q0.71997 0.50397 1.104 1.3919 0.71996 1.6559 0.71996 4.0318 0 0.74396-0.28798 1.9439-0.26399 1.1999-0.64797 2.0159-0.38398 0.79196-1.1759 1.4159t-1.8479 0.62397q-0.57597 0-1.032-0.19199t-0.62397-0.38398l-0.19199-0.16799q-0.072-0.072-0.14399-0.072-0.11999 0-0.16799 0.21599-0.072 1.1999-0.072 2.3519 0 1.1759 0.048 1.8479 0.072 0.69596 0.072 0.86396 0 0.79196-0.55198 1.2239-1.2719 1.08-3.0958 1.08-0.71997 0-0.71997-0.69596l0.072-0.43198q0.64797-1.8479 0.95995-4.1758 0.33599-2.3279 0.38398-4.0078 0.072-1.7039 0.072-3.3838 0-1.7039-0.024-2.2319-0.072-0.88796-0.62397-1.1999l-0.16799-0.12q-0.31198-0.28798-0.31198-0.57597 0-0.81596 1.2479-1.5359 1.2719-0.71997 2.1839-0.71997zm0.76797 5.6157q0 1.032 0.40798 1.8239 0.43197 0.76796 1.008 0.76796 0.57597 0 0.95995-0.62397 0.38398-0.64796 0.38398-1.6799 0-1.056-0.43198-1.8239-0.43198-0.79196-1.008-0.79196t-0.95995 0.64797q-0.35998 0.64796-0.35998 1.6799z"/>
    <path d="m72.89 223.57q0.62397 0.79196 1.0559 1.9439t0.43198 2.4479q0 1.2719-0.33598 2.2319-0.31198 0.95996-0.86396 1.5119-0.52797 0.55197-1.0799 0.91195-0.52797 0.35998-1.1519 0.50398-0.93595 0.21599-1.4159 0.21599-2.1119 0-3.3358-1.2239-1.1999-1.2239-1.1999-3.1918 0-1.104 0.52797-2.0639 0.55197-0.98395 1.3919-0.98395 0.28799 0 0.45598 0.21599 0.19199 0.21599 0.23999 0.74396 0.048 0.52798 0.21599 1.032 0.16799 0.47998 0.35998 0.71996 0.19199 0.21599 0.43198 0.35999 0.33598 0.16799 0.57597 0.16799 0.59997 0 0.93595-0.40798 0.33598-0.43198 0.33598-1.128 0-0.69596-0.45598-1.5119-0.45598-0.83996-1.1039-1.5839-0.62397-0.76796-1.2719-1.5359-1.5599-1.8479-1.5599-3.5038 0-2.1599 1.4399-3.3118 1.4639-1.1759 3.7198-1.1759 1.2479 0 1.7759 0.47997 0.55197 0.47998 0.55197 1.7039 0 1.1999-0.69596 1.1999-0.23999 0-0.64797-0.16799-0.38398-0.192-0.88796-0.192t-0.83996 0.40798-0.33598 1.032q0 0.59997 0.43198 1.2959 0.43198 0.69596 1.0559 1.3919 0.62397 0.67196 1.2479 1.4639z"/>
    <path d="m75.434 229.33 0.072-3.8878q0-0.69596-0.11999-1.1999-0.11999-0.52797-0.38398-0.81596-0.23999-0.31198-0.23999-0.64797 0-0.74396 1.1999-1.3679 1.1999-0.64796 1.8479-0.64796t0.86396 0.26398q0.23999 0.26399 0.23999 0.95995 0 0.69597-0.11999 2.2079-0.11999 1.4879-0.11999 1.7999 0 2.6159 1.1279 2.6159 0.81596 0 1.1039-1.7039 0.11999-0.62397 0.11999-1.3919 0-1.5359-0.26399-2.2799-0.26399-0.33598-0.26399-0.64797 0-0.71996 1.0799-1.1999 1.0799-0.50397 1.8959-0.50397 0.83996 0 0.83996 0.83996 0 0.81596-0.16799 2.5679-0.14399 1.7519-0.14399 2.7839 0 1.008 0.024 1.4399 0.024 0.40798 0.23999 1.2479 0.23999 0.81595 0.62397 1.0559 0.40798 0.19199 0.40798 0.52798 0 0.31198-0.19199 0.57597-0.88796 1.2239-2.8079 1.2239-1.0799-0.072-1.2239-0.81596l-0.16799-0.81596q-0.024-0.16799-0.14399-0.16799l-0.19199 0.096q-0.86396 1.6319-2.6399 1.6319-2.4959-0.048-2.4959-3.7438z"/>
    <path d="m88.489 220.71q0.79196 0 0.79196 1.4159 0.072 0.14399 0.14399 0.14399 0.096 0 0.19199-0.11999 0.096-0.144 0.23999-0.31199 0.16799-0.19199 0.67197-0.47997 0.52797-0.28799 1.2959-0.28799 0.76796 0 1.4879 0.52797 0.71996 0.50398 1.1039 1.3919 0.71996 1.6559 0.71996 4.0318 0 0.74397-0.28798 1.9439-0.26399 1.1999-0.64797 2.0159-0.38398 0.79196-1.1759 1.4159-0.79196 0.62397-1.8479 0.62397-0.57597 0-1.0319-0.19199t-0.62397-0.38398l-0.19199-0.16799q-0.072-0.072-0.14399-0.072-0.11999 0-0.16799 0.21599-0.072 1.1999-0.072 2.3519 0 1.176 0.048 1.8479 0.072 0.69597 0.072 0.86396 0 0.79196-0.55197 1.2239-1.2719 1.0799-3.0958 1.0799-0.71996 0-0.71996-0.69596l0.072-0.43198q0.64797-1.8479 0.95995-4.1758 0.33598-2.3279 0.38398-4.0078 0.072-1.7039 0.072-3.3838 0-1.7039-0.024-2.2319-0.072-0.88796-0.62397-1.1999l-0.16799-0.11999q-0.31198-0.28799-0.31198-0.57597 0-0.81596 1.2479-1.5359 1.2719-0.71996 2.1839-0.71996zm0.76796 5.6157q0 1.032 0.40798 1.8239 0.43198 0.76796 1.0079 0.76796 0.57597 0 0.95995-0.62397 0.38398-0.64797 0.38398-1.6799 0-1.0559-0.43198-1.8239-0.43198-0.79196-1.008-0.79196t-0.95995 0.64797q-0.35998 0.64797-0.35998 1.6799z"/>
    <path d="m99.529 230.89 0.048 0.59997q0 0.79196-0.55197 1.1759-0.93595 0.64797-2.3759 0.64797-0.91195 0-0.91195-0.79196l0.072-0.40798q0.57597-2.8319 0.57597-6.9357 0-1.2479-0.74396-1.7759-0.26399-0.16799-0.26399-0.55197 0-0.74396 1.1759-1.4399 1.1999-0.71996 1.9199-0.71996t0.81596 0.79196q0.096 0.55197 0.096 0.83996 0 0.26398 0.19199 0.26398 0.11999 0 0.16799-0.096 0.072-0.11999 0.11999-0.21599 0.072-0.11999 0.28799-0.38398 0.21599-0.28799 0.45598-0.47998 0.62396-0.55197 1.3919-0.55197 0.50397 0 1.008 0.31199 0.93595 0.57597 0.93595 2.2799 0 1.08-0.43198 1.8719t-1.3919 0.79196q-1.1999 0-1.1999-1.3199l0.024-0.35998q0-0.40798-0.33598-0.40798-1.2719 0-1.2719 3.6718 0 0.95995 0.19199 3.1918z"/>
    <path d="m106.97 225.54q0 0.14399 0.096 0.23998 0.096 0.12 0.23999 0.12 1.3679-0.12 1.8239-1.2959 0.11999-0.26398 0.16799-0.62397-0.024-0.83995-0.67197-0.83995-0.74396 0-1.1519 0.71996-0.38398 0.71996-0.50397 1.6799zm1.6319-4.6078q1.6079 0 2.4959 0.81596 0.91196 0.81596 0.91196 2.4719 0 1.6559-1.3199 2.7359-1.2959 1.0799-3.2878 1.0799-0.28799 0-0.28799 0.28799 0 0.57597 0.40798 1.008 0.43198 0.40798 1.1519 0.40798 0.74397 0 1.3199-0.67197 0.59997-0.67197 1.0319-0.67197 0.45598 0 0.71997 0.38398 0.26399 0.38399 0.26399 1.104 0 0.69596-0.35999 1.4159-0.33598 0.69596-0.81596 1.056-0.47997 0.35998-1.0799 0.57597-0.88796 0.33598-1.8959 0.33598-0.98395 0-1.8479-0.47998-0.86396-0.47997-1.3439-1.2959-0.93595-1.6319-0.93595-3.5998 0-1.9919 0.47998-3.4558 0.47997-1.4639 1.6319-2.4719 1.176-1.032 2.7599-1.032z"/>
    <path d="m116.28 226.62-0.048 1.7999q0 1.6799 0.072 2.3519 0.072 0.64796 0.072 0.81595 0 0.79196-0.55197 1.176-0.91195 0.62396-2.2799 0.62396-0.98395 0-0.98395-0.83995l0.048-0.38398q0.62397-2.9279 0.62397-7.3436 0-0.38398-0.16799-0.69596-0.16799-0.31199-0.52797-0.57597-0.26399-0.23999-0.26399-0.52798 0-0.76796 1.2719-1.4879 1.2719-0.71997 1.9919-0.71997 0.74396 0 0.79196 0.79196 0.048 0.33599 0.072 0.69597 0.048 0.16799 0.16799 0.16799 0.024 0 0.144-0.072 0.31198-0.47997 1.0559-0.88795 0.76797-0.40798 1.4879-0.40798 1.6079 0 2.0879 1.5839 0.048 0.072 0.12 0.072t0.16799-0.12q0.91195-1.5359 2.7599-1.5359 1.5119 0 1.8959 1.5599 0.28798 1.1519 0.28798 2.7359l-0.11999 3.0478q0 1.8479 0.81596 2.2799 0.40798 0.21599 0.40798 0.62397 0 0.69596-0.98395 1.2719-0.95995 0.55198-2.0399 0.55198t-1.2479-0.81596q-0.048-0.21599-0.048-1.104l0.144-3.8158q0.024-0.23999 0.024-0.64797 0-2.1119-0.88796-2.1119-0.57597 0-0.88796 0.69597-0.28798 0.67196-0.31198 1.2719t-0.024 1.5359q0 0.93596 0.024 1.6319 0.048 0.69597 0.096 1.128 0.048 0.40798 0.048 0.50397 0 0.71997-0.62397 1.1999-0.59997 0.47998-1.7999 0.47998-1.1759 0-1.1759-0.76796l0.096-0.55198q0.33598-1.5599 0.33598-5.0877 0-2.1119-0.91195-2.1119-0.59997 0-0.91196 0.67197-0.31198 0.67197-0.31198 1.3439z"/>
    <path d="m130.85 225.54q0 0.14399 0.096 0.23998 0.096 0.12 0.23999 0.12 1.3679-0.12 1.8239-1.2959 0.11999-0.26398 0.16799-0.62397-0.024-0.83995-0.67196-0.83995-0.74397 0-1.152 0.71996-0.38398 0.71996-0.50397 1.6799zm1.6319-4.6078q1.6079 0 2.4959 0.81596 0.91196 0.81596 0.91196 2.4719 0 1.6559-1.3199 2.7359-1.2959 1.0799-3.2878 1.0799-0.28799 0-0.28799 0.28799 0 0.57597 0.40798 1.008 0.43198 0.40798 1.1519 0.40798 0.74397 0 1.3199-0.67197 0.59997-0.67197 1.032-0.67197 0.45597 0 0.71996 0.38398 0.26399 0.38399 0.26399 1.104 0 0.69596-0.35999 1.4159-0.33598 0.69596-0.81595 1.056-0.47998 0.35998-1.08 0.57597-0.88796 0.33598-1.8959 0.33598-0.98395 0-1.8479-0.47998-0.86396-0.47997-1.3439-1.2959-0.93595-1.6319-0.93595-3.5998 0-1.9919 0.47998-3.4558 0.47997-1.4639 1.6319-2.4719 1.176-1.032 2.7599-1.032z"/>
   </g>
  </g>
 </g>
</svg>
