<svg version="1.1" viewBox="0 0 33.323 7.3096" xmlns="http://www.w3.org/2000/svg">
  <title>Loop Supreme</title>
  <g transform="translate(-.027314 -.030164)" stroke-width=".1" stroke="black" aria-label="Loop Supreme">
    <path d="m2.652 4.1224q0 0.66322-0.26106 0.95956-0.26106 0.29633-1.2488 0.29633-0.45156 0-0.68439-0.049389-0.22578-0.049389-0.27517-0.10583-0.049389-0.0635-0.049389-0.17639l0.014111-0.10583q0.16228-0.87489 0.16228-2.3777l-0.028222-1.1994q-0.014111-0.254-0.16228-0.45861-0.091722-0.091722-0.091722-0.1905 0-0.23283 0.42333-0.45861 0.43039-0.22578 0.67028-0.22578 0.23989 0 0.23989 0.19756-0.091722 0.70556-0.11289 1.2912-0.014111 0.57856-0.014111 1.3264 0 0.74083 0.00706 0.89606 0.00706 0.15522 0.00706 0.16933 0.00706 0.014111 0.021167 0.049389 0.021167 0.035278 0.056445 0.0635 0.084667 0.0635 0.26106 0.0635 0.38806 0 0.62089-0.26811 0.11289-0.11289 0.22578-0.11289 0.21872 0 0.21872 0.41628z"/>
    <path d="m4.0984 1.7447q0.61383 0 0.93133 0.53622 0.32456 0.53622 0.32456 1.3123 0 1.0231-0.58561 1.5522-0.32456 0.28928-0.71967 0.28928-0.39511 0-0.65617-0.16228-0.254-0.16228-0.38806-0.43039-0.27517-0.52211-0.27517-1.1148 0-0.69144 0.3175-1.2982 0.15522-0.30339 0.43039-0.49389 0.27517-0.1905 0.62089-0.1905zm0.40922 1.5028q0-0.21167-0.084667-0.381-0.084666-0.16933-0.28222-0.16933-0.1905 0-0.37394 0.27517-0.17639 0.26811-0.17639 0.65617 0 0.54328 0.35983 0.54328 0.19756 0 0.37394-0.24694 0.18344-0.24694 0.18344-0.67733z"/>
    <path d="m6.8712 1.7447q0.61383 0 0.93133 0.53622 0.32456 0.53622 0.32456 1.3123 0 1.0231-0.58561 1.5522-0.32456 0.28928-0.71967 0.28928t-0.65617-0.16228q-0.254-0.16228-0.38806-0.43039-0.27517-0.52211-0.27517-1.1148 0-0.69144 0.3175-1.2982 0.15522-0.30339 0.43039-0.49389 0.27517-0.1905 0.62089-0.1905zm0.40922 1.5028q0-0.21167-0.084667-0.381-0.084666-0.16933-0.28222-0.16933-0.1905 0-0.37394 0.27517-0.17639 0.26811-0.17639 0.65617 0 0.54328 0.35983 0.54328 0.19756 0 0.37394-0.24694 0.18344-0.24694 0.18344-0.67733z"/>
    <path d="m9.0655 1.7306q0.23283 0 0.23283 0.41628 0.021167 0.042333 0.042333 0.042333 0.028222 0 0.056445-0.035278 0.028222-0.042333 0.070556-0.091722 0.049389-0.056445 0.19756-0.14111 0.15522-0.084667 0.381-0.084667 0.22578 0 0.43744 0.15522 0.21167 0.14817 0.32456 0.40922 0.21167 0.48683 0.21167 1.1853 0 0.21872-0.08467 0.5715-0.07761 0.35278-0.1905 0.59267-0.11289 0.23283-0.34572 0.41628-0.23283 0.18344-0.54328 0.18344-0.16933 0-0.30339-0.056444-0.13406-0.056445-0.18344-0.11289l-0.056445-0.049389q-0.021167-0.021167-0.042333-0.021167-0.035278 0-0.049389 0.0635-0.021167 0.35278-0.021167 0.69144 0 0.34572 0.014111 0.54328 0.021167 0.20461 0.021167 0.254 0 0.23283-0.16228 0.35983-0.37394 0.3175-0.91017 0.3175-0.21167 0-0.21167-0.20461l0.021167-0.127q0.1905-0.54328 0.28222-1.2277 0.098778-0.68439 0.11289-1.1783 0.021167-0.50094 0.021167-0.99483 0-0.50094-0.00706-0.65617-0.021167-0.26106-0.18344-0.35278l-0.049389-0.035278q-0.091722-0.084667-0.091722-0.16933 0-0.23989 0.36689-0.45156 0.37394-0.21167 0.64206-0.21167zm0.22578 1.651q0 0.30339 0.11994 0.53622 0.127 0.22578 0.29633 0.22578 0.16933 0 0.28222-0.18344 0.11289-0.1905 0.11289-0.49389 0-0.31044-0.127-0.53622-0.127-0.23283-0.29633-0.23283t-0.28222 0.1905q-0.10583 0.1905-0.10583 0.49389z"/>
    <path fill="#528eb0ff" d="m14.83 2.5702q0.18344 0.23283 0.31044 0.5715 0.127 0.33867 0.127 0.71967 0 0.37394-0.09878 0.65617-0.09172 0.28222-0.254 0.4445-0.15522 0.16228-0.3175 0.26811-0.15522 0.10583-0.33867 0.14817-0.27517 0.0635-0.41628 0.0635-0.62089 0-0.98072-0.35983-0.35278-0.35983-0.35278-0.93839 0-0.32456 0.15522-0.60678 0.16228-0.28928 0.40922-0.28928 0.08467 0 0.13406 0.0635 0.05645 0.0635 0.07056 0.21872 0.01411 0.15522 0.0635 0.30339 0.04939 0.14111 0.10583 0.21167 0.05645 0.0635 0.127 0.10583 0.09878 0.049389 0.16933 0.049389 0.17639 0 0.27517-0.11994 0.09878-0.127 0.09878-0.33161t-0.13406-0.4445q-0.13406-0.24694-0.32456-0.46567-0.18344-0.22578-0.37394-0.45156-0.45861-0.54328-0.45861-1.0301 0-0.635 0.42333-0.97367 0.43039-0.34572 1.0936-0.34572 0.36689 0 0.52211 0.14111 0.16228 0.14111 0.16228 0.50094 0 0.35278-0.20461 0.35278-0.07056 0-0.1905-0.049389-0.11289-0.056444-0.26106-0.056444-0.14817 0-0.24694 0.11994-0.09878 0.11994-0.09878 0.30339 0 0.17639 0.127 0.381t0.31044 0.40922q0.18344 0.19756 0.36689 0.43039z"/>
    <path fill="#c6c0e9ff" d="m15.578 4.2635 0.02117-1.143q0-0.20461-0.03528-0.35278-0.03528-0.15522-0.11289-0.23989-0.07056-0.091722-0.07056-0.1905 0-0.21872 0.35278-0.40217 0.35278-0.1905 0.54328-0.1905t0.254 0.077611q0.07056 0.077611 0.07056 0.28222 0 0.20461-0.03528 0.64911-0.03528 0.43744-0.03528 0.52917 0 0.76906 0.33161 0.76906 0.23989 0 0.32456-0.50094 0.03528-0.18344 0.03528-0.40922 0-0.45156-0.07761-0.67028-0.07761-0.098778-0.07761-0.1905 0-0.21167 0.3175-0.35278 0.3175-0.14817 0.55739-0.14817 0.24694 0 0.24694 0.24694 0 0.23989-0.04939 0.75494-0.04233 0.51506-0.04233 0.81844 0 0.29633 0.0071 0.42333 0.0071 0.11994 0.07056 0.36689 0.07056 0.23989 0.18344 0.31044 0.11994 0.056444 0.11994 0.15522 0 0.091722-0.05644 0.16933-0.26106 0.35983-0.8255 0.35983-0.3175-0.021167-0.35983-0.23989l-0.049445-0.23989q-0.0071-0.049389-0.04233-0.049389l-0.05644 0.028222q-0.254 0.47978-0.77611 0.47978-0.73378-0.014111-0.73378-1.1007z"/>
    <path fill="#fadd8eff" d="m19.416 1.7306q0.23283 0 0.23283 0.41628 0.02117 0.042333 0.04233 0.042333 0.02822 0 0.05644-0.035278 0.02822-0.042333 0.07056-0.091722 0.04939-0.056445 0.19756-0.14111 0.15522-0.084667 0.381-0.084667t0.43744 0.15522q0.21167 0.14817 0.32456 0.40922 0.21167 0.48683 0.21167 1.1853 0 0.21872-0.08467 0.5715-0.07761 0.35278-0.1905 0.59267-0.11289 0.23283-0.34572 0.41628-0.23283 0.18344-0.54328 0.18344-0.16933 0-0.30339-0.056444-0.13406-0.056445-0.18344-0.11289l-0.05644-0.049389q-0.02117-0.021167-0.04233-0.021167-0.03528 0-0.04939 0.0635-0.02117 0.35278-0.02117 0.69144 0 0.34572 0.01411 0.54328 0.02117 0.20461 0.02117 0.254 0 0.23283-0.16228 0.35983-0.37394 0.3175-0.91017 0.3175-0.21167 0-0.21167-0.20461l0.02117-0.127q0.1905-0.54328 0.28222-1.2277 0.09878-0.68439 0.11289-1.1783 0.02117-0.50094 0.02117-0.99483 0-0.50094-0.0071-0.65617-0.02117-0.26106-0.18344-0.35278l-0.04939-0.035278q-0.09172-0.084667-0.09172-0.16933 0-0.23989 0.36689-0.45156 0.37394-0.21167 0.64206-0.21167zm0.22578 1.651q0 0.30339 0.11994 0.53622 0.127 0.22578 0.29633 0.22578t0.28222-0.18344q0.11289-0.1905 0.11289-0.49389 0-0.31044-0.127-0.53622-0.127-0.23283-0.29633-0.23283-0.16933 0-0.28222 0.1905-0.10583 0.1905-0.10583 0.49389z"/>
    <path fill="#f1b0b0ff" d="m22.661 4.7221 0.01411 0.17639q0 0.23283-0.16228 0.34572-0.27517 0.1905-0.6985 0.1905-0.26811 0-0.26811-0.23283l0.02117-0.11994q0.16933-0.83256 0.16933-2.0391 0-0.36689-0.21872-0.52211-0.07761-0.049389-0.07761-0.16228 0-0.21872 0.34572-0.42333 0.35278-0.21167 0.56444-0.21167 0.21167 0 0.23989 0.23283 0.02822 0.16228 0.02822 0.24694 0 0.077611 0.05644 0.077611 0.03528 0 0.04939-0.028222 0.02117-0.035278 0.03528-0.0635 0.02117-0.035278 0.08467-0.11289 0.0635-0.084667 0.13406-0.14111 0.18344-0.16228 0.40922-0.16228 0.14817 0 0.29633 0.091722 0.27517 0.16933 0.27517 0.67028 0 0.3175-0.127 0.55033-0.127 0.23283-0.40922 0.23283-0.35278 0-0.35278-0.38806l0.0071-0.10583q0-0.11994-0.09878-0.11994-0.37394 0-0.37394 1.0795 0 0.28222 0.05644 0.93839z"/>
    <path fill="#b1daeeff" d="m24.849 3.1487q0 0.042333 0.02822 0.070556 0.02822 0.035278 0.07056 0.035278 0.40217-0.035278 0.53622-0.381 0.03528-0.077611 0.04939-0.18344-0.0071-0.24694-0.19756-0.24694-0.21872 0-0.33867 0.21167-0.11289 0.21167-0.14817 0.49389zm0.47978-1.3547q0.47272 0 0.73378 0.23989 0.26811 0.23989 0.26811 0.72672 0 0.48683-0.38806 0.80433-0.381 0.3175-0.96661 0.3175-0.08467 0-0.08467 0.084667 0 0.16933 0.11994 0.29633 0.127 0.11994 0.33867 0.11994 0.21872 0 0.38806-0.19756 0.17639-0.19756 0.30339-0.19756 0.13406 0 0.21167 0.11289 0.07761 0.11289 0.07761 0.32456 0 0.20461-0.10583 0.41628-0.09878 0.20461-0.23989 0.31044-0.14111 0.10583-0.3175 0.16933-0.26106 0.098778-0.55739 0.098778-0.28928 0-0.54328-0.14111-0.254-0.14111-0.39511-0.381-0.27517-0.47978-0.27517-1.0583 0-0.58561 0.14111-1.016 0.14111-0.43039 0.47978-0.72672 0.34572-0.30339 0.81139-0.30339z"/>
    <path fill="#411a71ff" d="m27.586 3.4662-0.01411 0.52917q0 0.49389 0.02117 0.69144 0.02117 0.1905 0.02117 0.23989 0 0.23283-0.16228 0.34572-0.26812 0.18344-0.67029 0.18344-0.28928 0-0.28928-0.24694l0.01411-0.11289q0.18344-0.86078 0.18344-2.159 0-0.11289-0.04939-0.20461-0.04939-0.091722-0.15522-0.16933-0.07761-0.070556-0.07761-0.15522 0-0.22578 0.37394-0.43744 0.37394-0.21167 0.58561-0.21167 0.21872 0 0.23283 0.23283 0.01411 0.098778 0.02117 0.20461 0.01411 0.049389 0.04939 0.049389 0.0071 0 0.04233-0.021167 0.09172-0.14111 0.31044-0.26106 0.22578-0.11994 0.43744-0.11994 0.47272 0 0.61383 0.46567 0.01411 0.021167 0.03528 0.021167t0.04939-0.035278q0.26811-0.45156 0.81139-0.45156 0.4445 0 0.55739 0.45861 0.08467 0.33867 0.08467 0.80433l-0.03528 0.89606q0 0.54328 0.23989 0.67028 0.11994 0.0635 0.11994 0.18344 0 0.20461-0.28928 0.37394-0.28222 0.16228-0.59972 0.16228t-0.36689-0.23989q-0.01411-0.0635-0.01411-0.32456l0.04233-1.1218q0.0071-0.070556 0.0071-0.1905 0-0.62089-0.26106-0.62089-0.16933 0-0.26106 0.20461-0.08467 0.19756-0.09172 0.37394-0.0071 0.17639-0.0071 0.45156t0.0071 0.47978q0.01411 0.20461 0.02822 0.33161 0.01411 0.11994 0.01411 0.14817 0 0.21167-0.18344 0.35278-0.17639 0.14111-0.52917 0.14111-0.34572 0-0.34572-0.22578l0.02822-0.16228q0.09878-0.45861 0.09878-1.4958 0-0.62089-0.26811-0.62089-0.17639 0-0.26811 0.19756-0.09172 0.19756-0.09172 0.39511z"/>
    <path fill="#c9574fff" d="m31.869 3.1487q0 0.042333 0.02822 0.070556 0.02822 0.035278 0.07055 0.035278 0.40217-0.035278 0.53622-0.381 0.03528-0.077611 0.04939-0.18344-0.0071-0.24694-0.19756-0.24694-0.21872 0-0.33867 0.21167-0.11289 0.21167-0.14817 0.49389zm0.47978-1.3547q0.47272 0 0.73378 0.23989 0.26811 0.23989 0.26811 0.72672 0 0.48683-0.38806 0.80433-0.381 0.3175-0.96661 0.3175-0.08467 0-0.08467 0.084667 0 0.16933 0.11994 0.29633 0.127 0.11994 0.33867 0.11994 0.21872 0 0.38806-0.19756 0.17639-0.19756 0.30339-0.19756 0.13406 0 0.21167 0.11289 0.07761 0.11289 0.07761 0.32456 0 0.20461-0.10583 0.41628-0.09878 0.20461-0.23989 0.31044-0.14111 0.10583-0.3175 0.16933-0.26106 0.098778-0.55739 0.098778-0.28928 0-0.54328-0.14111t-0.39511-0.381q-0.27517-0.47978-0.27517-1.0583 0-0.58561 0.14111-1.016 0.14111-0.43039 0.47978-0.72672 0.34572-0.30339 0.81139-0.30339z"/>
  </g>
</svg>
